<svg xmlns="http://www.w3.org/2000/svg" xmlns:xlink="http://www.w3.org/1999/xlink" preserveAspectRatio="xMidYMid" width="53" height="53" viewBox="0 0 53 53">
    <defs>
        <style>
            .cls-1 {
                fill: #fffcfc;
                fill-rule: evenodd;
            }
        </style>
    </defs>
    <path d="M26.500,53.000 C11.864,53.000 0.000,41.136 0.000,26.500 C0.000,11.864 11.864,0.000 26.500,0.000 C41.136,0.000 53.000,11.864 53.000,26.500 C53.000,41.136 41.136,53.000 26.500,53.000 ZM25.679,12.470 C25.485,12.236 25.195,12.119 24.809,12.119 C24.609,12.119 24.316,12.189 23.930,12.330 C23.543,12.470 23.057,12.693 22.471,12.997 C22.072,13.150 21.715,13.291 21.398,13.419 C21.164,13.501 20.962,13.589 20.792,13.683 C20.622,13.777 20.467,13.882 20.326,13.999 C20.080,14.187 19.857,14.339 19.658,14.456 C19.459,14.574 19.289,14.667 19.148,14.738 C18.105,15.453 17.262,16.129 16.617,16.768 C15.973,17.407 15.516,18.001 15.246,18.552 C15.199,18.669 15.158,18.775 15.123,18.869 C15.088,18.963 15.053,19.044 15.018,19.115 C14.783,19.443 14.604,19.815 14.481,20.231 C14.358,20.647 14.297,21.078 14.297,21.523 C14.297,22.203 14.364,22.771 14.499,23.228 C14.634,23.685 14.824,24.043 15.070,24.300 C15.211,24.429 15.331,24.544 15.431,24.643 C15.530,24.743 15.609,24.828 15.668,24.898 C15.726,24.945 15.794,25.045 15.870,25.197 C15.946,25.349 16.049,25.543 16.178,25.777 C16.248,25.894 16.342,26.020 16.459,26.155 C16.576,26.290 16.717,26.427 16.881,26.568 C17.291,26.896 17.719,27.274 18.164,27.702 C18.609,28.130 19.055,28.613 19.500,29.152 C20.086,29.843 20.525,30.435 20.818,30.927 C21.111,31.419 21.258,31.812 21.258,32.105 C21.258,32.234 21.184,32.404 21.038,32.615 C20.891,32.826 20.666,33.066 20.361,33.335 L20.326,33.406 L20.414,33.810 C20.426,33.927 20.171,34.214 19.649,34.671 C19.128,35.128 18.791,35.357 18.639,35.357 C18.580,35.357 18.510,35.298 18.428,35.181 C18.428,35.087 18.653,34.932 19.104,34.715 C19.555,34.499 19.781,34.232 19.781,33.915 C19.781,33.798 19.740,33.702 19.658,33.625 C19.576,33.549 19.441,33.511 19.254,33.511 C17.976,34.132 16.681,34.748 15.369,35.357 C14.713,35.650 14.215,35.961 13.875,36.289 C13.535,36.617 13.365,36.956 13.365,37.308 C13.365,37.484 13.441,37.654 13.594,37.818 C13.746,37.982 13.963,38.152 14.244,38.328 C14.514,38.468 14.760,38.576 14.982,38.653 C15.205,38.729 15.410,38.767 15.598,38.767 C15.902,38.685 16.172,38.609 16.406,38.539 C17.414,38.222 18.430,37.730 19.456,37.064 C20.481,36.397 21.510,35.561 22.541,34.555 C23.431,34.485 24.155,34.404 24.712,34.310 C25.268,34.217 25.629,34.106 25.793,33.977 L25.090,32.360 C25.043,32.407 24.999,32.445 24.958,32.474 C24.917,32.503 24.861,32.518 24.791,32.518 C24.603,32.518 24.469,32.498 24.387,32.456 C24.305,32.416 24.264,32.257 24.264,31.982 C24.264,31.513 24.252,31.115 24.229,30.787 C24.205,30.459 24.164,30.183 24.105,29.960 C24.047,29.679 23.935,29.386 23.771,29.081 C23.607,28.777 23.408,28.472 23.174,28.167 C23.127,28.144 22.898,27.892 22.488,27.412 C22.078,26.931 21.492,26.251 20.730,25.372 C20.180,24.740 19.725,24.198 19.368,23.747 C19.011,23.296 18.738,22.923 18.551,22.630 C18.293,22.208 18.096,21.798 17.962,21.400 C17.827,21.002 17.760,20.609 17.760,20.222 C17.760,19.730 18.020,19.153 18.542,18.491 C19.063,17.829 19.840,17.082 20.871,16.249 C20.953,16.191 21.032,16.144 21.108,16.109 C21.184,16.074 21.252,16.056 21.311,16.056 L21.469,16.162 C21.480,16.361 21.223,16.651 20.695,17.032 C20.168,17.413 19.904,17.761 19.904,18.078 C19.904,18.265 19.951,18.406 20.045,18.499 C20.139,18.593 20.267,18.640 20.432,18.640 C20.771,18.640 21.363,18.362 22.207,17.805 C23.051,17.249 24.164,16.419 25.547,15.318 C25.676,15.212 25.778,15.004 25.854,14.694 C25.931,14.383 25.969,13.982 25.969,13.490 C25.969,13.044 25.872,12.705 25.679,12.470 ZM40.061,13.314 C39.704,13.121 39.162,13.024 38.435,13.024 C38.318,13.024 38.160,13.041 37.961,13.077 C37.761,13.112 37.527,13.171 37.257,13.252 C37.117,13.182 37.003,13.129 36.915,13.094 C36.827,13.059 36.753,13.041 36.695,13.041 L36.115,13.252 C35.986,13.217 35.839,13.182 35.675,13.147 C34.210,13.487 33.091,14.037 32.318,14.798 C31.568,15.595 30.970,16.356 30.525,17.082 C30.080,17.808 29.787,18.534 29.646,19.261 C29.564,19.764 29.482,20.285 29.400,20.824 C29.400,20.883 29.418,20.988 29.453,21.140 C29.488,21.292 29.505,21.404 29.505,21.474 C29.435,21.697 29.376,21.878 29.330,22.019 C29.271,22.171 29.212,22.458 29.154,22.880 C29.095,23.301 29.042,23.846 28.996,24.513 C28.949,25.099 28.881,25.544 28.794,25.848 C28.706,26.153 28.597,26.340 28.468,26.411 C28.304,26.528 28.146,26.645 27.994,26.762 C27.841,26.879 27.713,27.014 27.607,27.166 C27.513,27.342 27.411,27.518 27.299,27.693 C27.188,27.869 27.080,28.050 26.974,28.238 L27.027,28.414 L27.185,28.519 C27.337,28.473 27.466,28.431 27.572,28.396 C27.677,28.361 27.765,28.337 27.836,28.326 C27.917,28.290 27.997,28.258 28.073,28.229 C28.149,28.200 28.216,28.173 28.275,28.150 C28.357,28.150 28.418,28.185 28.460,28.255 C28.501,28.326 28.521,28.420 28.521,28.537 C28.521,28.631 28.501,28.757 28.460,28.915 C28.418,29.073 28.398,29.194 28.398,29.276 C28.398,29.358 28.413,29.522 28.442,29.768 C28.471,30.014 28.480,30.185 28.468,30.278 C28.363,30.923 28.269,31.557 28.187,32.178 C28.246,32.542 28.287,32.911 28.310,33.286 C28.287,33.685 28.263,34.025 28.240,34.307 C28.228,34.612 28.207,34.852 28.178,35.028 C28.149,35.204 28.134,35.327 28.134,35.397 C28.134,35.597 28.152,35.908 28.187,36.330 C28.222,36.752 28.240,37.063 28.240,37.262 C28.240,37.743 28.246,38.127 28.257,38.414 C28.269,38.701 28.287,38.898 28.310,39.004 C28.380,39.355 28.512,39.613 28.706,39.778 C28.899,39.942 29.136,40.024 29.418,40.024 C29.511,40.024 29.587,40.024 29.646,40.024 C29.705,40.024 29.763,40.024 29.822,40.024 C29.998,39.813 30.126,39.602 30.209,39.391 C30.290,39.180 30.332,38.981 30.332,38.793 C30.332,37.903 30.364,37.009 30.428,36.113 C30.493,35.216 30.601,34.299 30.754,33.362 C30.754,33.245 30.745,33.130 30.727,33.019 C30.710,32.908 30.701,32.811 30.701,32.729 L31.035,30.637 L30.912,30.092 L31.088,29.336 C31.193,28.762 31.316,28.337 31.457,28.062 C31.597,27.787 31.744,27.649 31.896,27.649 C32.177,27.684 32.359,27.702 32.441,27.702 C32.593,27.702 32.749,27.675 32.907,27.622 C33.065,27.570 33.220,27.485 33.373,27.368 C33.595,27.356 33.915,27.315 34.331,27.245 C34.747,27.174 35.066,27.139 35.289,27.139 C35.640,27.139 35.980,27.119 36.308,27.078 C36.636,27.037 36.941,26.981 37.222,26.911 C38.019,27.086 38.634,27.218 39.068,27.306 C39.501,27.394 39.771,27.438 39.877,27.438 C40.041,27.157 40.199,26.881 40.351,26.612 C40.386,26.131 40.413,25.748 40.430,25.460 C40.448,25.173 40.457,24.995 40.457,24.924 C40.457,24.573 40.287,24.300 39.947,24.107 C39.607,23.914 39.097,23.817 38.418,23.817 C38.007,23.887 37.603,23.957 37.205,24.028 C36.970,24.028 36.765,24.028 36.589,24.028 C36.414,24.028 36.267,24.028 36.150,24.028 C35.740,24.145 35.344,24.242 34.963,24.318 C34.583,24.394 34.205,24.456 33.830,24.502 C33.408,24.620 33.047,24.728 32.749,24.828 C32.450,24.927 32.213,25.018 32.037,25.100 C31.943,25.089 31.867,25.039 31.808,24.951 C31.749,24.863 31.720,24.737 31.720,24.573 C31.720,24.456 31.758,24.309 31.835,24.133 C31.911,23.957 31.955,23.834 31.966,23.764 C32.306,22.229 32.579,21.046 32.784,20.213 C32.989,19.381 33.138,18.907 33.232,18.789 C33.513,18.262 33.712,17.843 33.830,17.533 C33.947,17.222 34.375,16.979 35.113,16.803 C35.382,16.733 35.643,16.677 35.895,16.636 C36.147,16.595 36.372,16.575 36.572,16.575 C36.806,16.610 37.023,16.639 37.222,16.663 L37.855,16.416 C38.195,16.557 38.523,16.689 38.839,16.812 C39.156,16.935 39.466,17.067 39.771,17.207 C39.900,17.184 40.017,17.064 40.123,16.847 C40.228,16.630 40.322,16.305 40.404,15.872 C40.474,15.544 40.524,15.239 40.553,14.957 C40.582,14.676 40.597,14.424 40.597,14.202 C40.597,13.803 40.418,13.507 40.061,13.314 Z" class="cls-1"/>
</svg>
